<svg width="189" height="28" viewBox="0 0 189 28" fill="none" xmlns="http://www.w3.org/2000/svg">
<path d="M54.32 23.1299L56.816 19.3859L59.288 23.1299C59.504 23.4419 59.84 23.6099 60.224 23.6099H62.432V6.80986H59.624V19.4099L58.208 17.2739L57.728 16.5779C57.296 15.9059 56.312 15.9059 55.88 16.5779L55.4 17.2739L53.984 19.4099V6.80986H51.2V23.6099H53.384C53.768 23.6099 54.104 23.4419 54.32 23.1299ZM72.3526 6.85786C72.2806 6.83386 72.1846 6.80986 72.1126 6.80986H65.9446C65.3206 6.80986 64.8406 7.31386 64.8406 7.93786V23.6099H67.6246V19.5299C68.6566 19.3139 69.5926 18.9059 70.4326 18.3539V23.6099H73.2406V7.93786C73.2406 7.40986 72.8566 6.97786 72.3526 6.85786ZM67.6246 16.6259V9.61786H70.4326V14.4179C69.7846 15.4499 68.8006 16.2419 67.6246 16.6259ZM83.1573 6.85786C83.0853 6.83386 82.9893 6.80986 82.9173 6.80986H75.6453V23.6339H78.4293V19.5299C79.2933 19.3619 80.0853 19.0259 80.8293 18.6179L81.2373 19.3859V23.6339H84.0453V19.3859L82.7733 17.0099C83.2773 16.4339 83.7093 15.8099 84.0453 15.1379V7.93786C84.0213 7.40986 83.6613 6.97786 83.1573 6.85786ZM78.4293 9.61786H81.2373V14.4179C80.5893 15.4499 79.6053 16.2419 78.4293 16.6259V9.61786ZM93.962 6.85786C93.89 6.83386 93.794 6.80986 93.722 6.80986H87.554C86.93 6.80986 86.45 7.31386 86.45 7.93786V23.6099H89.234V19.5299C90.266 19.3139 91.202 18.9059 92.042 18.3539C93.242 17.5619 94.202 16.4339 94.826 15.1379V7.93786C94.826 7.40986 94.466 6.97786 93.962 6.85786ZM89.234 16.6259V9.61786H92.042V14.4179C91.394 15.4499 90.41 16.2419 89.234 16.6259ZM100.039 6.80986H97.2547V22.5059C97.2547 23.1299 97.7347 23.6099 98.3587 23.6099H105.631V20.8259H100.039V6.80986ZM115.571 6.85786C115.499 6.83386 115.403 6.80986 115.331 6.80986H109.163C108.539 6.80986 108.059 7.31386 108.059 7.93786V23.6099H110.843V19.5299C111.875 19.3139 112.811 18.9059 113.651 18.3539V23.6099H116.459V7.93786C116.459 7.40986 116.075 6.97786 115.571 6.85786ZM110.843 16.6259V9.61786H113.651V14.4179C113.003 15.4499 112.019 16.2419 110.843 16.6259ZM126.064 6.80986L123.256 12.4259L120.448 6.80986H117.664L121.864 15.2099V23.6099H124.648V15.2099L128.848 6.80986H126.064ZM130.067 20.8259V23.6099H131.747C132.347 23.6099 132.851 23.1299 132.851 22.5059V20.8259H130.067ZM140.862 20.8259H138.054V9.61786H140.862V12.4739C142.062 12.0419 143.07 11.1539 143.646 10.0259V7.93786C143.646 7.31386 143.166 6.80986 142.542 6.80986H135.27V23.6099H142.542C143.166 23.6099 143.646 23.1299 143.646 22.5059V15.4019H140.862V20.8259ZM148.859 6.80986H146.075V22.5059C146.075 23.1299 146.555 23.6099 147.179 23.6099H154.451V20.8259H148.859V6.80986ZM156.88 7.93786V22.5059C156.88 23.1299 157.36 23.6099 157.984 23.6099H164.152C164.776 23.6099 165.256 23.1299 165.256 22.5059V7.93786C165.256 7.31386 164.776 6.80986 164.152 6.80986H157.984C157.36 6.80986 156.88 7.31386 156.88 7.93786ZM162.472 20.8259H159.664V9.61786H162.472V20.8259ZM173.276 6.80986V20.8259H170.468V6.80986H167.684V22.5059C167.684 23.1299 168.164 23.6099 168.788 23.6099H174.956C175.58 23.6099 176.06 23.1299 176.06 22.5059V6.80986H173.276ZM178.489 6.80986V23.6099H185.761C186.385 23.6099 186.865 23.1299 186.865 22.5059V7.93786C186.865 7.31386 186.385 6.80986 185.761 6.80986H178.489ZM184.081 20.8259H181.273V9.61786H184.081V20.8259Z" fill="#57D6FF"/>
<path d="M19.2632 16.0881H13.7405C13.6799 16.0881 13.6248 16.1265 13.6027 16.1814L8.41079 27.2544C8.37221 27.3531 8.44386 27.4573 8.54858 27.4518H24.4441C24.5488 27.4518 24.6149 27.3421 24.5819 27.2489L19.3899 16.1759C19.3734 16.1265 19.3183 16.0881 19.2632 16.0881Z" fill="#57D6FF"/>
<path d="M8.48247 24.2982L12.9855 14.7663C12.9965 14.7389 13.002 14.7059 12.991 14.673L6.47624 0.770089C6.43215 0.605557 6.18964 0.627495 6.18964 0.802996L8.20689 24.2433C8.19586 24.3969 8.42184 24.4462 8.48247 24.2982Z" fill="#57D6FF"/>
<path d="M0.407926 9.26549L4.65738 0.0626718C4.74556 -0.057985 4.92745 0.00782761 4.92194 0.155906L7.15965 25.6255C7.15414 25.779 6.93919 25.8229 6.87856 25.6803L0.159903 11.3221C-0.121189 10.6421 -0.0274918 9.86329 0.407926 9.26549Z" fill="#57D6FF"/>
<path d="M24.7969 24.2434L26.8141 0.803081C26.8141 0.633064 26.5716 0.605642 26.5275 0.770174L20.0128 14.6731C20.0018 14.706 20.0073 14.7389 20.0183 14.7664L24.5213 24.2983C24.5819 24.4463 24.8079 24.397 24.7969 24.2434Z" fill="#57D6FF"/>
<path d="M32.8383 11.3222L26.1197 25.6803C26.059 25.8284 25.8441 25.7845 25.8386 25.6255L28.0763 0.155922C28.0708 0.00784303 28.2527 -0.0524852 28.3408 0.0626872L32.5958 9.26551C33.0312 9.86331 33.1194 10.6421 32.8383 11.3222Z" fill="#57D6FF"/>
</svg>
